# xmcd
#
# Track frame offsets:
#	150
#	13000
#	25607
#	39409
#	52259
#	63939
#	77680
#	88743
#	99806
#	110697
#	122352
#	135760
#
# Disc length: 2045 seconds
#
# Revision: 1
# Processed by: cddbd v1.5.2PL0 Copyright (c) Steve Scherf et al.
# Submitted via: audiograbber 1.83.01
#
DISCID=8807fb0c
DTITLE=Raven Desmond Songs - Best Of The Blues
DYEAR=2005
DGENRE=Blues
TTITLE0=Blues Attack
TTITLE1=Chicago The Blues Today
TTITLE2=Coming Home
TTITLE3=Double Talking Jive
TTITLE4=King Hawk
TTITLE5=Lord I Don't Miss The Honky Tonk
TTITLE6=Maxwell Street Blues (1)
TTITLE7=Maxwell Street Blues
TTITLE8=Preaching To The Choir
TTITLE9=Shake It Down
TTITLE10=Slow Walking Slider
TTITLE11=The Wrong Watusi
EXTD=
EXTT0=
EXTT1=
EXTT2=
EXTT3=
EXTT4=
EXTT5=
EXTT6=
EXTT7=
EXTT8=
EXTT9=
EXTT10=
EXTT11=
PLAYORDER=
